<svg xmlns="http://www.w3.org/2000/svg" viewBox="0 0 1599 864">
<path d="M 1178 368 L 1178 490 L 1177 491 L 1178 492 L 1178 494 L 1179 495 L 1239 495 L 1240 496 L 1240 706 L 1239 707 L 1179 707 L 1178 708 L 1178 834 L 1537 834 L 1537 708 L 1536 707 L 1476 707 L 1475 706 L 1475 495 L 1476 494 L 1536 494 L 1536 368 Z" fill="red"/>
<path d="M 719 368 L 718 369 L 711 369 L 710 370 L 706 370 L 705 371 L 701 371 L 700 372 L 697 372 L 696 373 L 694 373 L 693 374 L 690 374 L 689 375 L 687 375 L 686 376 L 685 376 L 684 377 L 682 377 L 681 378 L 680 378 L 679 379 L 677 379 L 676 380 L 675 380 L 674 381 L 673 381 L 672 382 L 671 382 L 670 383 L 669 383 L 668 384 L 667 384 L 665 386 L 664 386 L 663 387 L 662 387 L 660 389 L 659 389 L 657 391 L 656 391 L 654 393 L 653 393 L 649 397 L 648 397 L 635 410 L 635 411 L 631 415 L 631 416 L 629 418 L 629 419 L 627 421 L 627 422 L 626 423 L 626 424 L 624 426 L 624 427 L 623 428 L 623 429 L 622 430 L 622 431 L 621 432 L 621 434 L 620 435 L 620 436 L 619 437 L 619 439 L 618 440 L 618 443 L 617 444 L 617 446 L 616 447 L 616 451 L 615 452 L 615 459 L 614 460 L 614 743 L 615 744 L 615 750 L 616 751 L 616 755 L 617 756 L 617 759 L 618 760 L 618 762 L 619 763 L 619 765 L 620 766 L 620 767 L 621 768 L 621 770 L 622 771 L 622 772 L 623 773 L 623 774 L 624 775 L 624 776 L 625 777 L 625 778 L 627 780 L 627 781 L 628 782 L 628 783 L 631 786 L 631 787 L 634 790 L 634 791 L 650 807 L 651 807 L 653 809 L 654 809 L 657 812 L 658 812 L 660 814 L 661 814 L 662 815 L 663 815 L 665 817 L 666 817 L 667 818 L 668 818 L 669 819 L 670 819 L 671 820 L 672 820 L 673 821 L 674 821 L 675 822 L 676 822 L 677 823 L 678 823 L 679 824 L 681 824 L 682 825 L 683 825 L 684 826 L 686 826 L 687 827 L 689 827 L 690 828 L 692 828 L 693 829 L 696 829 L 697 830 L 700 830 L 701 831 L 705 831 L 706 832 L 709 832 L 710 833 L 718 833 L 719 834 L 1037 834 L 1038 833 L 1045 833 L 1046 832 L 1050 832 L 1051 831 L 1055 831 L 1056 830 L 1059 830 L 1060 829 L 1063 829 L 1064 828 L 1066 828 L 1067 827 L 1069 827 L 1070 826 L 1071 826 L 1072 825 L 1074 825 L 1075 824 L 1077 824 L 1078 823 L 1079 823 L 1080 822 L 1081 822 L 1082 821 L 1083 821 L 1084 820 L 1085 820 L 1086 819 L 1087 819 L 1088 818 L 1089 818 L 1090 817 L 1091 817 L 1093 815 L 1094 815 L 1095 814 L 1096 814 L 1098 812 L 1099 812 L 1102 809 L 1103 809 L 1106 806 L 1107 806 L 1122 791 L 1122 790 L 1125 787 L 1125 786 L 1127 784 L 1127 783 L 1129 781 L 1129 780 L 1130 779 L 1130 778 L 1132 776 L 1132 775 L 1133 774 L 1133 773 L 1134 772 L 1134 770 L 1135 769 L 1135 768 L 1136 767 L 1136 765 L 1137 764 L 1137 762 L 1138 761 L 1138 760 L 1139 759 L 1139 755 L 1140 754 L 1140 750 L 1141 749 L 1141 740 L 1142 739 L 1142 638 L 1141 638 L 1140 637 L 1139 637 L 1138 638 L 1137 638 L 1136 637 L 944 637 L 943 638 L 942 637 L 937 637 L 936 638 L 936 706 L 935 707 L 848 707 L 847 706 L 847 496 L 848 495 L 935 495 L 936 496 L 936 564 L 937 565 L 1140 565 L 1142 563 L 1142 464 L 1141 463 L 1141 453 L 1140 452 L 1140 448 L 1139 447 L 1139 444 L 1138 443 L 1138 441 L 1137 440 L 1137 438 L 1136 437 L 1136 435 L 1135 434 L 1135 433 L 1134 432 L 1134 431 L 1133 430 L 1133 429 L 1132 428 L 1132 427 L 1131 426 L 1131 425 L 1130 424 L 1130 423 L 1128 421 L 1128 420 L 1127 419 L 1127 418 L 1124 415 L 1124 414 L 1121 411 L 1121 410 L 1108 397 L 1107 397 L 1103 393 L 1102 393 L 1100 391 L 1099 391 L 1097 389 L 1096 389 L 1094 387 L 1093 387 L 1092 386 L 1091 386 L 1089 384 L 1088 384 L 1087 383 L 1086 383 L 1085 382 L 1084 382 L 1083 381 L 1082 381 L 1081 380 L 1080 380 L 1079 379 L 1077 379 L 1076 378 L 1075 378 L 1074 377 L 1072 377 L 1071 376 L 1070 376 L 1069 375 L 1066 375 L 1065 374 L 1063 374 L 1062 373 L 1060 373 L 1059 372 L 1056 372 L 1055 371 L 1051 371 L 1050 370 L 1045 370 L 1044 369 L 1038 369 L 1037 368 Z" fill="red"/>
<path d="M 107 368 L 106 369 L 99 369 L 98 370 L 93 370 L 92 371 L 88 371 L 87 372 L 84 372 L 83 373 L 80 373 L 79 374 L 77 374 L 76 375 L 73 375 L 72 376 L 71 376 L 70 377 L 68 377 L 67 378 L 66 378 L 65 379 L 63 379 L 62 380 L 61 380 L 60 381 L 59 381 L 58 382 L 57 382 L 56 383 L 55 383 L 54 384 L 53 384 L 52 385 L 51 385 L 49 387 L 48 387 L 47 388 L 46 388 L 44 390 L 43 390 L 40 393 L 39 393 L 37 395 L 36 395 L 29 402 L 28 402 L 26 404 L 26 405 L 19 412 L 19 413 L 16 416 L 16 417 L 14 419 L 14 420 L 12 422 L 12 423 L 11 424 L 11 425 L 10 426 L 10 427 L 9 428 L 9 429 L 8 430 L 8 431 L 7 432 L 7 433 L 6 434 L 6 436 L 5 437 L 5 438 L 4 439 L 4 441 L 3 442 L 3 445 L 2 446 L 2 449 L 1 450 L 1 454 L 0 455 L 0 609 L 1 610 L 6 610 L 7 611 L 12 611 L 13 612 L 17 612 L 18 613 L 23 613 L 24 614 L 29 614 L 30 615 L 35 615 L 36 616 L 41 616 L 42 617 L 46 617 L 47 618 L 53 618 L 54 619 L 58 619 L 59 620 L 64 620 L 65 621 L 69 621 L 70 622 L 76 622 L 77 623 L 81 623 L 82 624 L 87 624 L 88 625 L 93 625 L 94 626 L 99 626 L 100 627 L 105 627 L 106 628 L 110 628 L 111 629 L 116 629 L 117 630 L 121 630 L 122 631 L 128 631 L 129 632 L 133 632 L 134 633 L 139 633 L 140 634 L 145 634 L 146 635 L 151 635 L 152 636 L 157 636 L 158 637 L 162 637 L 163 638 L 168 638 L 169 639 L 173 639 L 174 640 L 180 640 L 181 641 L 185 641 L 186 642 L 192 642 L 193 643 L 197 643 L 198 644 L 203 644 L 204 645 L 209 645 L 210 646 L 215 646 L 216 647 L 220 647 L 221 648 L 226 648 L 227 649 L 232 649 L 233 650 L 237 650 L 238 651 L 244 651 L 245 652 L 249 652 L 250 653 L 255 653 L 256 654 L 260 654 L 261 655 L 267 655 L 268 656 L 272 656 L 273 657 L 278 657 L 279 658 L 284 658 L 285 659 L 289 659 L 290 660 L 296 660 L 297 661 L 301 661 L 302 662 L 307 662 L 308 663 L 313 663 L 314 664 L 319 664 L 320 665 L 324 665 L 325 666 L 330 666 L 332 668 L 332 738 L 331 739 L 232 739 L 231 738 L 231 679 L 0 679 L 0 834 L 460 834 L 461 833 L 469 833 L 470 832 L 473 832 L 474 831 L 479 831 L 480 830 L 482 830 L 483 829 L 486 829 L 487 828 L 489 828 L 490 827 L 492 827 L 493 826 L 495 826 L 496 825 L 497 825 L 498 824 L 500 824 L 501 823 L 502 823 L 503 822 L 504 822 L 505 821 L 506 821 L 507 820 L 508 820 L 509 819 L 510 819 L 511 818 L 512 818 L 513 817 L 514 817 L 516 815 L 517 815 L 518 814 L 519 814 L 521 812 L 522 812 L 524 810 L 525 810 L 529 806 L 530 806 L 536 800 L 537 800 L 537 799 L 546 790 L 546 789 L 548 787 L 548 786 L 551 783 L 551 782 L 552 781 L 552 780 L 554 778 L 554 777 L 555 776 L 555 775 L 556 774 L 556 773 L 557 772 L 557 771 L 558 770 L 558 769 L 559 768 L 559 766 L 560 765 L 560 763 L 561 762 L 561 760 L 562 759 L 562 756 L 563 755 L 563 752 L 564 751 L 564 743 L 565 742 L 565 583 L 564 582 L 563 582 L 562 581 L 557 581 L 556 580 L 552 580 L 551 579 L 545 579 L 544 578 L 541 578 L 540 577 L 534 577 L 533 576 L 530 576 L 529 575 L 523 575 L 522 574 L 518 574 L 517 573 L 512 573 L 511 572 L 507 572 L 506 571 L 501 571 L 500 570 L 495 570 L 494 569 L 490 569 L 489 568 L 483 568 L 482 567 L 478 567 L 477 566 L 472 566 L 471 565 L 467 565 L 466 564 L 461 564 L 460 563 L 456 563 L 455 562 L 450 562 L 449 561 L 444 561 L 443 560 L 439 560 L 438 559 L 432 559 L 431 558 L 428 558 L 427 557 L 421 557 L 420 556 L 416 556 L 415 555 L 410 555 L 409 554 L 405 554 L 404 553 L 399 553 L 398 552 L 394 552 L 393 551 L 388 551 L 387 550 L 382 550 L 381 549 L 377 549 L 376 548 L 370 548 L 369 547 L 366 547 L 365 546 L 359 546 L 358 545 L 354 545 L 353 544 L 348 544 L 347 543 L 343 543 L 342 542 L 337 542 L 336 541 L 331 541 L 330 540 L 326 540 L 325 539 L 320 539 L 319 538 L 315 538 L 314 537 L 308 537 L 307 536 L 304 536 L 303 535 L 297 535 L 296 534 L 292 534 L 291 533 L 286 533 L 285 532 L 281 532 L 280 531 L 275 531 L 274 530 L 269 530 L 268 529 L 264 529 L 263 528 L 258 528 L 257 527 L 253 527 L 252 526 L 246 526 L 245 525 L 242 525 L 241 524 L 235 524 L 234 523 L 232 523 L 231 522 L 231 464 L 233 462 L 339 462 L 341 464 L 341 516 L 342 517 L 553 517 L 554 516 L 554 369 L 553 368 Z" fill="red"/>
<path d="M 1341 12 L 1340 13 L 1331 13 L 1330 14 L 1324 14 L 1323 15 L 1318 15 L 1317 16 L 1314 16 L 1313 17 L 1309 17 L 1308 18 L 1305 18 L 1304 19 L 1301 19 L 1300 20 L 1298 20 L 1297 21 L 1295 21 L 1294 22 L 1292 22 L 1291 23 L 1289 23 L 1288 24 L 1286 24 L 1285 25 L 1284 25 L 1283 26 L 1281 26 L 1280 27 L 1279 27 L 1278 28 L 1276 28 L 1275 29 L 1274 29 L 1273 30 L 1272 30 L 1271 31 L 1270 31 L 1269 32 L 1268 32 L 1267 33 L 1266 33 L 1265 34 L 1264 34 L 1263 35 L 1262 35 L 1260 37 L 1259 37 L 1258 38 L 1257 38 L 1256 39 L 1255 39 L 1253 41 L 1252 41 L 1251 42 L 1250 42 L 1248 44 L 1247 44 L 1245 46 L 1244 46 L 1241 49 L 1240 49 L 1237 52 L 1236 52 L 1232 56 L 1231 56 L 1222 65 L 1221 65 L 1216 70 L 1216 71 L 1209 78 L 1209 79 L 1205 83 L 1205 84 L 1202 87 L 1202 88 L 1200 90 L 1200 91 L 1198 93 L 1198 94 L 1196 96 L 1196 97 L 1194 99 L 1194 100 L 1193 101 L 1193 102 L 1192 103 L 1192 104 L 1191 105 L 1191 106 L 1190 107 L 1190 108 L 1189 109 L 1189 110 L 1188 111 L 1188 112 L 1187 113 L 1187 114 L 1186 115 L 1186 116 L 1185 117 L 1185 119 L 1184 120 L 1184 121 L 1183 122 L 1183 124 L 1182 125 L 1182 126 L 1181 127 L 1181 130 L 1180 131 L 1180 133 L 1179 134 L 1179 137 L 1178 138 L 1178 142 L 1177 143 L 1177 146 L 1176 147 L 1176 154 L 1175 155 L 1175 161 L 1174 162 L 1174 181 L 1175 182 L 1175 189 L 1176 190 L 1176 197 L 1177 198 L 1177 201 L 1178 202 L 1178 206 L 1179 207 L 1179 210 L 1180 211 L 1180 213 L 1181 214 L 1181 216 L 1182 217 L 1182 219 L 1183 220 L 1183 222 L 1184 223 L 1184 224 L 1185 225 L 1185 227 L 1186 228 L 1186 229 L 1187 230 L 1187 231 L 1188 232 L 1188 233 L 1189 234 L 1189 235 L 1190 236 L 1190 237 L 1191 238 L 1191 239 L 1192 240 L 1192 241 L 1193 242 L 1193 243 L 1195 245 L 1195 246 L 1196 247 L 1196 248 L 1198 250 L 1198 251 L 1200 253 L 1200 254 L 1202 256 L 1202 257 L 1205 260 L 1205 261 L 1209 265 L 1209 266 L 1215 272 L 1215 273 L 1223 281 L 1224 281 L 1231 288 L 1232 288 L 1237 293 L 1238 293 L 1240 295 L 1241 295 L 1244 298 L 1245 298 L 1247 300 L 1248 300 L 1250 302 L 1251 302 L 1252 303 L 1253 303 L 1255 305 L 1256 305 L 1258 307 L 1259 307 L 1260 308 L 1261 308 L 1262 309 L 1263 309 L 1264 310 L 1265 310 L 1266 311 L 1267 311 L 1268 312 L 1269 312 L 1270 313 L 1271 313 L 1272 314 L 1273 314 L 1274 315 L 1275 315 L 1276 316 L 1277 316 L 1278 317 L 1280 317 L 1281 318 L 1282 318 L 1283 319 L 1285 319 L 1286 320 L 1288 320 L 1289 321 L 1290 321 L 1291 322 L 1293 322 L 1294 323 L 1297 323 L 1298 324 L 1300 324 L 1301 325 L 1303 325 L 1304 326 L 1308 326 L 1309 327 L 1312 327 L 1313 328 L 1316 328 L 1317 329 L 1323 329 L 1324 330 L 1329 330 L 1330 331 L 1339 331 L 1340 332 L 1374 332 L 1375 331 L 1385 331 L 1386 330 L 1390 330 L 1391 329 L 1397 329 L 1398 328 L 1401 328 L 1402 327 L 1406 327 L 1407 326 L 1410 326 L 1411 325 L 1413 325 L 1414 324 L 1417 324 L 1418 323 L 1420 323 L 1421 322 L 1423 322 L 1424 321 L 1426 321 L 1427 320 L 1429 320 L 1430 319 L 1431 319 L 1432 318 L 1434 318 L 1435 317 L 1436 317 L 1437 316 L 1438 316 L 1439 315 L 1441 315 L 1442 314 L 1443 314 L 1444 313 L 1445 313 L 1446 312 L 1447 312 L 1448 311 L 1449 311 L 1450 310 L 1451 310 L 1452 309 L 1453 309 L 1454 308 L 1455 308 L 1456 307 L 1457 307 L 1459 305 L 1460 305 L 1461 304 L 1462 304 L 1464 302 L 1465 302 L 1467 300 L 1468 300 L 1470 298 L 1471 298 L 1473 296 L 1474 296 L 1477 293 L 1478 293 L 1482 289 L 1483 289 L 1490 282 L 1491 282 L 1500 273 L 1500 272 L 1506 266 L 1506 265 L 1509 262 L 1509 261 L 1512 258 L 1512 257 L 1514 255 L 1514 254 L 1516 252 L 1516 251 L 1518 249 L 1518 248 L 1519 247 L 1519 246 L 1521 244 L 1521 243 L 1522 242 L 1522 241 L 1523 240 L 1523 239 L 1524 238 L 1524 237 L 1525 236 L 1525 235 L 1526 234 L 1526 233 L 1527 232 L 1527 230 L 1528 229 L 1528 228 L 1529 227 L 1529 226 L 1530 225 L 1530 223 L 1531 222 L 1531 220 L 1532 219 L 1532 217 L 1533 216 L 1533 214 L 1534 213 L 1534 210 L 1535 209 L 1535 207 L 1536 206 L 1536 202 L 1537 201 L 1537 197 L 1538 196 L 1538 190 L 1539 189 L 1539 155 L 1538 154 L 1538 148 L 1537 147 L 1537 143 L 1536 142 L 1536 138 L 1535 137 L 1535 134 L 1534 133 L 1534 131 L 1533 130 L 1533 128 L 1532 127 L 1532 124 L 1531 123 L 1531 122 L 1530 121 L 1530 119 L 1529 118 L 1529 117 L 1528 116 L 1528 114 L 1527 113 L 1527 112 L 1526 111 L 1526 110 L 1525 109 L 1525 108 L 1524 107 L 1524 106 L 1523 105 L 1523 104 L 1522 103 L 1522 102 L 1521 101 L 1521 100 L 1520 99 L 1520 98 L 1518 96 L 1518 95 L 1516 93 L 1516 92 L 1515 91 L 1515 90 L 1512 87 L 1512 86 L 1510 84 L 1510 83 L 1506 79 L 1506 78 L 1499 71 L 1499 70 L 1491 62 L 1490 62 L 1483 55 L 1482 55 L 1478 51 L 1477 51 L 1474 48 L 1473 48 L 1471 46 L 1470 46 L 1468 44 L 1467 44 L 1465 42 L 1464 42 L 1463 41 L 1462 41 L 1460 39 L 1459 39 L 1458 38 L 1457 38 L 1456 37 L 1455 37 L 1453 35 L 1452 35 L 1451 34 L 1450 34 L 1449 33 L 1448 33 L 1447 32 L 1446 32 L 1445 31 L 1444 31 L 1443 30 L 1441 30 L 1440 29 L 1439 29 L 1438 28 L 1437 28 L 1436 27 L 1434 27 L 1433 26 L 1432 26 L 1431 25 L 1429 25 L 1428 24 L 1426 24 L 1425 23 L 1424 23 L 1423 22 L 1420 22 L 1419 21 L 1417 21 L 1416 20 L 1414 20 L 1413 19 L 1410 19 L 1409 18 L 1406 18 L 1405 17 L 1401 17 L 1400 16 L 1397 16 L 1396 15 L 1391 15 L 1390 14 L 1384 14 L 1383 13 L 1374 13 L 1373 12 Z" fill="red"/>
</svg>